<?xml version="1.0" encoding="utf-8"?>
<!-- Generator: Adobe Illustrator 21.1.0, SVG Export Plug-In . SVG Version: 6.00 Build 0)  -->
<svg version="1.1" id="Layer_1" xmlns="http://www.w3.org/2000/svg" xmlns:xlink="http://www.w3.org/1999/xlink" x="0px" y="0px"
	 viewBox="0 0 342 153.5" style="enable-background:new 0 0 342 153.5;" xml:space="preserve">
<style type="text/css">
	.st0{fill:#20204F;}
	.st1{fill:none;}
	.st2{fill:#FFFFFF;}
</style>
<title>GoodseyLogo-White</title>
<path class="st0" d="M231.5,58.7c-2.2-3.8-5.5-5.2-13.7-7.3c-1.6-0.4-3-0.8-4.3-1.1c-5.8-1.4-8.5-2.1-8.5-5.2c0-3.9,4.7-5.2,9.5-5.2
	c6.5,0,12.9,4.1,12.9,4.1l4.9-6.8l-0.1-0.1c-6.2-3.9-11.4-5.6-17.2-5.6c-10,0-18.4,6.5-18.4,14.1c0,1.6,0.5,3.3,1.3,4.7
	c2.2,4,4.8,5.7,15.5,8.1l0.6,0.1c4.4,1,10.5,2.3,10.5,6.1c0,5-5.3,6-9.8,6c-4.1,0-7.6-0.6-13.7-4.3l-4.9,6.8l0.1,0.1
	c5.3,3.7,11.7,5.8,18.2,5.8c10.5,0,18.4-6.3,18.4-14.8C232.9,62.3,232.5,60.4,231.5,58.7z"/>
<path class="st0" d="M280.3,57.4c0.1-0.8,0.1-1.5,0.1-2.3c0-13-9.7-23.6-21.8-23.6S236.9,42,236.9,55.1s9,24,22.6,24
	c9,0,14.5-4.1,18.7-8.6l-5.5-5.9c-3.1,3.9-6.7,6.1-13.2,6.1c-8.2,0-13.2-5.8-14.2-13.3l0,0L280.3,57.4z M258.7,39.9
	c5.7,0.1,10.8,3.7,12.6,9.1H246C247.9,43.6,253,39.9,258.7,39.9z"/>
<path class="st0" d="M47.4,39.5h-8.2c-4.7,0-8.5,3.6-8.8,8.3V48l8.8-0.2h8.2c0.3,0,0.5,0.2,0.5,0.5v2.6l0,0
	c0,10.9-8.9,19.8-19.8,19.8S8.4,61.8,8.4,50.9V28.1c0-10.9,8.9-19.8,19.8-19.8S48,17.2,48,28.1h8.3C56.2,12.6,43.7,0,28.1,0
	C12.6,0,0,12.6,0,28.1v22.8C0,66.4,12.6,79,28.1,79c7.4,0,14.6-2.9,19.8-8.2V79h8.3V48.3C56.2,43.4,52.3,39.5,47.4,39.5L47.4,39.5z"
	/>
<path class="st0" d="M184.2,2.5v34.3c-3.6-3.3-8.2-5.2-13.1-5.3c-11.8,0-21.3,10.9-21.3,23.9S159.4,79,171.2,79
	c4.8,0,9.5-1.8,13.1-5v5h8.3V11.3C192.5,6.6,188.8,2.8,184.2,2.5z M171.1,70.6c-7.2,0-13.1-6.6-13.1-15.2S163.8,40,171.1,40
	s13.1,7,13.1,15.5S178.3,70.6,171.1,70.6z"/>
<path class="st0" d="M327.3,82.7V58.9c0-0.2,0-0.5,0-0.7v-14l0,0v-4c0-4.7-3.6-8.5-8.3-8.8v26.8c0,0.2,0,0.3,0,0.5
	c-0.4,6.9-6.2,12.2-13.1,12c-7.2,0-13.1-5.6-13.1-12.5V31.5h-8.3v26.8c0,11.5,9.6,20.9,21.4,20.9c4.7,0,9.3-1.5,13.1-4.3V84
	c-25.8,4.9-47.9,18.3-47.9,41.4c0,15.5,12.6,28.1,28.1,28.1s28.1-12.6,28.1-28.1l0,0V91.1c4.9-0.6,9.8-0.9,14.7-0.9v-8.3
	C337.1,81.9,332.2,82.2,327.3,82.7z M319,125.4c0,10.9-8.8,19.8-19.8,19.8s-19.8-8.8-19.8-19.8l0,0c0-7.4,3.2-17.8,18.7-25.9
	c6.6-3.3,13.6-5.7,20.9-7.1L319,125.4L319,125.4z"/>
<circle class="st1" cx="84" cy="55.3" r="15.4"/>
<path class="st0" d="M84,31.5c-13.1,0-23.8,10.6-23.8,23.7S70.8,79,83.9,79s23.8-10.6,23.8-23.7l0,0C107.7,42.2,97.1,31.5,84,31.5z
	 M84,70.6c-8.5-0.2-15.2-7.3-15-15.8c0.2-8.2,6.8-14.8,15-15c1.6,0,3.2,0.3,4.7,0.8c-3.9,1.5-5.8,5.9-4.2,9.8
	c1.5,3.9,5.9,5.8,9.8,4.2c1.9-0.8,3.5-2.3,4.2-4.3c0.5,1.6,0.8,3.2,0.8,4.8C99.4,63.7,92.5,70.6,84,70.6z"/>
<circle class="st1" cx="123.1" cy="55.3" r="15.4"/>
<path class="st0" d="M123.1,31.5c-13.1,0-23.8,10.6-23.8,23.8S110,79,123.1,79s23.8-10.6,23.8-23.8l0,0
	C146.9,42.1,136.3,31.5,123.1,31.5L123.1,31.5z M123.1,70.6c-8.5-0.2-15.2-7.3-15-15.8c0.2-8.2,6.8-14.8,15-15
	c1.6,0,3.2,0.3,4.7,0.8c-3.9,1.6-5.8,6-4.2,9.8c1.6,3.9,6,5.8,9.8,4.2c1.9-0.8,3.5-2.3,4.2-4.2c2.7,8.1-1.7,16.8-9.8,19.4
	C126.4,70.4,124.8,70.6,123.1,70.6z"/>
<path class="st2" d="M213,148.2L213,148.2"/>
<path class="st2" d="M208.8,148.2L208.8,148.2"/>
<path class="st2" d="M208.8,148.2L208.8,148.2"/>
<path class="st2" d="M213,148.2L213,148.2"/>
</svg>
